<svg width="25" height="24" viewBox="0 0 25 24" fill="none" xmlns="http://www.w3.org/2000/svg">
<path d="M24.3333 12.0026C24.3338 9.70924 23.6771 7.46376 22.4409 5.53204C21.2048 3.60031 19.441 2.06326 17.3584 1.10287C15.2758 0.142489 12.9617 -0.201004 10.6899 0.113067C8.41812 0.427137 6.28393 1.38562 4.54002 2.87502C2.7961 4.36441 1.5155 6.32235 0.849846 8.51699C0.184192 10.7116 0.161365 13.0511 0.784068 15.2583C1.40677 17.4655 2.64892 19.448 4.36344 20.9712C6.07797 22.4943 8.19305 23.4943 10.4583 23.8526V15.4706H7.41225V12.0026H10.4583V9.35762C10.3928 8.74037 10.464 8.11629 10.6665 7.52958C10.8691 6.94287 11.1982 6.40788 11.6305 5.96249C12.0629 5.5171 12.5878 5.17221 13.1682 4.95225C13.7486 4.73228 14.3703 4.64262 14.9893 4.68962C15.8893 4.70162 16.7873 4.77962 17.6763 4.92362V7.88062H16.1643C15.9067 7.84684 15.6448 7.87144 15.398 7.95259C15.1512 8.03374 14.9259 8.16937 14.7386 8.34943C14.5513 8.52949 14.407 8.74937 14.3162 8.99278C14.2254 9.2362 14.1906 9.49691 14.2143 9.75562V12.0056H17.5423L17.0103 15.4736H14.2083V23.8606C17.0317 23.414 19.603 21.9741 21.4591 19.8002C23.3153 17.6263 24.3345 14.8612 24.3333 12.0026Z" fill="white"/>
</svg>
