<svg width="24" height="24" viewBox="0 0 24 24" fill="none" xmlns="http://www.w3.org/2000/svg">
<path d="M19.2361 7.45824C18.9661 7.72829 18.5998 7.88 18.2179 7.88C17.8359 7.88 17.4697 7.72829 17.1996 7.45824C16.9296 7.18819 16.7779 6.82191 16.7779 6.44C16.7779 6.05809 16.9296 5.69182 17.1996 5.42177C17.4697 5.15172 17.8359 5 18.2179 5C18.5998 5 18.9661 5.15172 19.2361 5.42177C19.5062 5.69182 19.6579 6.05809 19.6579 6.44C19.6579 6.82191 19.5062 7.18819 19.2361 7.45824Z" fill="white"/>
<path fill-rule="evenodd" clip-rule="evenodd" d="M5.99988 12.602C5.99988 15.911 8.69086 18.602 11.9999 18.602C15.3089 18.602 17.9999 15.911 17.9999 12.602C17.9999 9.293 15.3089 6.60201 11.9999 6.60201C8.69086 6.60201 5.99988 9.293 5.99988 12.602ZM8.99988 12.602C8.99988 10.947 10.3448 9.60201 11.9999 9.60201C13.6549 9.60201 14.9999 10.947 14.9999 12.602C14.9999 14.257 13.6549 15.602 11.9999 15.602C10.3448 15.602 8.99988 14.257 8.99988 12.602Z" fill="white"/>
<path fill-rule="evenodd" clip-rule="evenodd" d="M-0.00012207 18C-0.00012207 21.084 2.91589 24 5.99988 24H17.9999C21.0839 24 23.9999 21.084 23.9999 18V6C23.9999 2.916 21.0839 0 17.9999 0H5.99988C2.91589 0 -0.00012207 2.916 -0.00012207 6V18ZM2.99988 6C2.99988 4.59801 4.5979 3 5.99988 3H17.9999C19.4019 3 20.9999 4.59801 20.9999 6V18C20.9999 19.402 19.4019 21 17.9999 21H5.99988C4.56989 21 2.99988 19.43 2.99988 18V6Z" fill="white"/>
</svg>
