<svg width="22" height="25" viewBox="0 0 22 25" fill="none" xmlns="http://www.w3.org/2000/svg">
<path d="M17.5997 17.433C16.451 18.5817 13.9847 21.048 12.4137 22.6189C11.6327 23.4 10.3679 23.4005 9.5868 22.6195C8.04266 21.0753 5.62592 18.6586 4.40033 17.433C0.755441 13.7881 0.755441 7.87856 4.40033 4.23367C8.04523 0.588777 13.9548 0.588777 17.5997 4.23367C21.2446 7.87856 21.2446 13.7881 17.5997 17.433Z" stroke="#E5383B" stroke-width="2" stroke-linecap="round" stroke-linejoin="round"/>
<path d="M14.5 10.8333C14.5 12.7663 12.933 14.3333 11 14.3333C9.067 14.3333 7.5 12.7663 7.5 10.8333C7.5 8.90034 9.067 7.33333 11 7.33333C12.933 7.33333 14.5 8.90034 14.5 10.8333Z" stroke="#E5383B" stroke-width="2" stroke-linecap="round" stroke-linejoin="round"/>
</svg>
