<svg width="25" height="20" viewBox="0 0 25 20" fill="none" xmlns="http://www.w3.org/2000/svg">
<path d="M24.6666 2.25C23.7666 2.7 22.8666 2.85 21.8166 3C22.8666 2.4 23.6166 1.5 23.9166 0.3C23.0166 0.9 21.9666 1.2 20.7666 1.5C19.8666 0.6 18.5166 0 17.1666 0C14.6166 0 12.3666 2.25 12.3666 4.95C12.3666 5.4 12.3666 5.7 12.5166 6C8.46663 5.85 4.71663 3.9 2.31663 0.9C1.86663 1.65 1.71663 2.4 1.71663 3.45C1.71663 5.1 2.61663 6.6 3.96663 7.5C3.21663 7.5 2.46663 7.2 1.71663 6.9C1.71663 9.3 3.36663 11.25 5.61663 11.7C5.16663 11.85 4.71663 11.85 4.26663 11.85C3.96663 11.85 3.66663 11.85 3.36663 11.7C3.96663 13.65 5.76663 15.15 8.01663 15.15C6.36663 16.5 4.26663 17.25 1.86663 17.25H0.666626C2.91663 18.6 5.46663 19.5 8.16663 19.5C17.1666 19.5 22.1166 12 22.1166 5.55V4.95C23.1666 4.2 24.0666 3.3 24.6666 2.25Z" fill="white"/>
</svg>
